<svg width="100" height="100" viewBox="0 0 100 100" fill="black" xmlns="http://www.w3.org/2000/svg">
<path d="M0 87.5C0 90.8152 1.31696 93.9946 3.66117 96.3388C6.00537 98.683 9.18479 100 12.5 100H87.5C90.8152 100 93.9946 98.683 96.3388 96.3388C98.683 93.9946 100 90.8152 100 87.5V12.5C100 9.18479 98.683 6.00537 96.3388 3.66117C93.9946 1.31696 90.8152 0 87.5 0L12.5 0C9.18479 0 6.00537 1.31696 3.66117 3.66117C1.31696 6.00537 0 9.18479 0 12.5L0 87.5ZM28.125 46.875H64.3313L50.9125 33.4625C50.3257 32.8757 49.9961 32.0798 49.9961 31.25C49.9961 30.4202 50.3257 29.6243 50.9125 29.0375C51.4993 28.4507 52.2952 28.1211 53.125 28.1211C53.9548 28.1211 54.7507 28.4507 55.3375 29.0375L74.0875 47.7875C74.3785 48.0778 74.6094 48.4226 74.767 48.8023C74.9245 49.1819 75.0056 49.589 75.0056 50C75.0056 50.411 74.9245 50.8181 74.767 51.1977C74.6094 51.5774 74.3785 51.9222 74.0875 52.2125L55.3375 70.9625C54.7507 71.5493 53.9548 71.8789 53.125 71.8789C52.2952 71.8789 51.4993 71.5493 50.9125 70.9625C50.3257 70.3757 49.9961 69.5798 49.9961 68.75C49.9961 67.9202 50.3257 67.1243 50.9125 66.5375L64.3313 53.125H28.125C27.2962 53.125 26.5013 52.7958 25.9153 52.2097C25.3292 51.6237 25 50.8288 25 50C25 49.1712 25.3292 48.3763 25.9153 47.7903C26.5013 47.2042 27.2962 46.875 28.125 46.875V46.875Z" />
</svg>
