<svg width="30" height="30" viewBox="0 0 30 30" fill="black" xmlns="http://www.w3.org/2000/svg">
<path d="M3.75 1.9617C3.25272 1.9617 2.77581 2.16837 2.42417 2.53626C2.07254 2.90415 1.875 3.40312 1.875 3.92339V19.617C1.875 20.1372 2.07254 20.6362 2.42417 21.0041C2.77581 21.372 3.25272 21.5786 3.75 21.5786H21.7238C22.7182 21.5789 23.6719 21.9924 24.375 22.7282L28.125 26.6516V3.92339C28.125 3.40312 27.9275 2.90415 27.5758 2.53626C27.2242 2.16837 26.7473 1.9617 26.25 1.9617H3.75ZM26.25 0C27.2446 0 28.1984 0.413356 28.9016 1.14913C29.6049 1.88491 30 2.88284 30 3.92339V29.0194C30 29.2134 29.9449 29.4031 29.8418 29.5645C29.7386 29.7258 29.5921 29.8515 29.4206 29.9256C29.2492 29.9998 29.0606 30.019 28.8787 29.981C28.6968 29.9429 28.5298 29.8492 28.3987 29.7118L23.0494 24.1151C22.6978 23.7472 22.221 23.5405 21.7238 23.5403H3.75C2.75544 23.5403 1.80161 23.127 1.09835 22.3912C0.395088 21.6554 0 20.6575 0 19.617V3.92339C0 2.88284 0.395088 1.88491 1.09835 1.14913C1.80161 0.413356 2.75544 0 3.75 0L26.25 0Z" />
</svg>
