<svg width="30" height="30" viewBox="0 0 30 30" fill="#225398" xmlns="http://www.w3.org/2000/svg">
<path d="M15 0C6.72902 0 0 6.72902 0 15C0 23.271 6.72902 30 15 30C23.271 30 30 23.271 30 15C30 6.72902 23.271 0 15 0ZM15 27.6253C8.03824 27.6253 2.37469 21.9613 2.37469 15C2.37469 8.03865 8.03824 2.37469 15 2.37469C21.9613 2.37469 27.6253 8.03906 27.6253 15.0004C27.6253 21.9618 21.9613 27.6253 15 27.6253Z" />
<path d="M15.0002 17.6616C10.7816 17.6616 6.83451 19.777 3.88672 23.6177L5.77062 25.0631C8.25886 21.8217 11.5367 20.0363 15.0002 20.0363C18.4637 20.0363 21.7415 21.8217 24.2293 25.0631L26.1132 23.6177C23.1655 19.777 19.2188 17.6616 15.0002 17.6616Z" />
<path d="M14.9998 5.38281C11.5954 5.38281 8.82568 8.17029 8.82568 11.5965C8.82568 15.0227 11.5954 17.8103 14.9998 17.8103C18.4043 17.8103 21.174 15.0228 21.174 11.5966C21.174 8.17035 18.4043 5.38281 14.9998 5.38281ZM14.9998 15.4356C12.905 15.4356 11.2004 13.7136 11.2004 11.5965C11.2004 9.47945 12.905 7.75744 14.9998 7.75744C17.0947 7.75744 18.7993 9.47986 18.7993 11.5965C18.7993 13.7131 17.0947 15.4356 14.9998 15.4356Z" />
</svg>
