<svg width="30" height="30" viewBox="0 0 30 30" fill="black" xmlns="http://www.w3.org/2000/svg">
<path d="M3.75 0C2.75544 0 1.80161 0.395088 1.09835 1.09835C0.395088 1.80161 0 2.75544 0 3.75L0 26.25C0 27.2446 0.395088 28.1984 1.09835 28.9016C1.80161 29.6049 2.75544 30 3.75 30H26.25C27.2446 30 28.1984 29.6049 28.9016 28.9016C29.6049 28.1984 30 27.2446 30 26.25V3.75C30 2.75544 29.6049 1.80161 28.9016 1.09835C28.1984 0.395088 27.2446 0 26.25 0L3.75 0ZM22.5562 9.31875C22.8167 9.57891 22.9647 9.93082 22.9686 10.2989C22.9724 10.667 22.8318 11.0219 22.5769 11.2875L15.0919 20.6438C14.9632 20.7823 14.808 20.8935 14.6354 20.9707C14.4628 21.0479 14.2764 21.0895 14.0873 21.093C13.8983 21.0965 13.7105 21.0618 13.5352 20.9911C13.3598 20.9203 13.2006 20.815 13.0669 20.6812L8.1075 15.72C7.96934 15.5913 7.85852 15.436 7.78166 15.2635C7.7048 15.091 7.66347 14.9048 7.66014 14.716C7.65681 14.5272 7.69154 14.3396 7.76227 14.1645C7.833 13.9894 7.93827 13.8303 8.0718 13.6968C8.20534 13.5633 8.3644 13.458 8.5395 13.3873C8.71461 13.3165 8.90216 13.2818 9.09098 13.2851C9.2798 13.2885 9.46601 13.3298 9.63851 13.4067C9.81101 13.4835 9.96626 13.5943 10.095 13.7325L14.0213 17.6569L20.5331 9.36C20.6615 9.22119 20.8166 9.1097 20.989 9.03219C21.1615 8.95468 21.3478 8.91275 21.5369 8.9089C21.7259 8.90505 21.9138 8.93936 22.0892 9.00978C22.2647 9.0802 22.4242 9.18528 22.5581 9.31875H22.5562Z" />
</svg>
